/vscmnt/brussel_pixiu_data/_data_brussel/112/vsc11236/PredSimResults/SUBJ09opt3D/trackIG/worker_04.mot
version=1
nRows=8
nColumns=50
inDegrees=yes
endheader
                time	         pelvis_tilt	         pelvis_list	     pelvis_rotation	           pelvis_tx	           pelvis_ty	           pelvis_tz	       hip_flexion_r	     hip_adduction_r	      hip_rotation_r	        knee_angle_r	       ankle_angle_r	         mtp_angle_r	       hip_flexion_l	     hip_adduction_l	      hip_rotation_l	        knee_angle_l	       ankle_angle_l	         mtp_angle_l	    lumbar_extension	      lumbar_bending	     lumbar_rotation	 ercspn_r/activation	 intobl_r/activation	 extobl_r/activation	    abd_r/activation	    add_r/activation	hamstrings_r/activation	bifemsh_r/activation	glut_max_r/activation	iliopsoas_r/activation	rect_fem_r/activation	  vasti_r/activation	gastroc_r/activation	 soleus_r/activation	tib_ant_r/activation	 ercspn_l/activation	 intobl_l/activation	 extobl_l/activation	    abd_l/activation	    add_l/activation	hamstrings_l/activation	bifemsh_l/activation	glut_max_l/activation	iliopsoas_l/activation	rect_fem_l/activation	  vasti_l/activation	gastroc_l/activation	 soleus_l/activation	tib_ant_l/activation	
          1.52231473	         -2.74648921	         -0.54145659	          7.69062566	          1.37008326	          1.00117449	         -0.00505218	         23.17826206	         -1.24768134	         -9.96415216	         -1.38648322	          1.53101641	          0.23120399	        -10.12409408	         -2.68317783	        -10.15066994	        -13.72555959	          6.93444460	         31.71269845	        -13.63270183	         -2.76621057	         -7.23555731	          0.01383979	          0.20034602	          0.05389229	          0.01000003	          0.22312117	          0.03596823	          0.01100467	          0.01253661	          0.08650975	          0.02640788	          0.01733944	          0.01000154	          0.01000017	          0.28642930	          0.01000047	          0.01000023	          0.01000012	          0.04868668	          0.01000043	          0.02155112	          0.07088285	          0.03097381	          0.01000090	          0.01000320	          0.01000374	          0.22727051	          0.24247197	          0.01000007	
          1.53753788	         -2.85814235	         -0.60962103	          7.56326657	          1.38853069	          0.99915542	         -0.00366596	         22.45189558	         -0.97652181	        -10.20994059	         -1.66937985	          0.99396395	          0.20923660	        -10.64060983	         -3.01177303	        -10.82706739	        -14.50651118	          6.14957447	         33.10515670	        -13.04019982	         -2.28944852	         -7.39356173	          0.01103913	          0.19306861	          0.04298597	          0.04406861	          0.17796757	          0.04543747	          0.02747619	          0.01000054	          0.06900252	          0.02106366	          0.01383069	          0.01253866	          0.01253718	          0.32349588	          0.01000111	          0.01000017	          0.01001687	          0.03883381	          0.01000113	          0.03212181	          0.05653833	          0.02470561	          0.01000117	          0.01000073	          0.02000105	          0.20738062	          0.22281300	          0.01000006	
          1.55276102	         -2.94964146	         -0.73212724	          7.39133564	          1.40732367	          0.99752482	         -0.00219844	         21.62661535	         -0.64840144	        -10.52567763	         -1.79843179	          0.18688899	          0.20262861	        -10.99899826	         -3.43671669	        -11.52135001	        -15.61924117	          5.17603095	         34.51656876	        -12.42344730	         -1.73243865	         -7.51294666	          0.01000071	          0.15399679	          0.03428680	          0.08221482	          0.14195214	          0.05705102	          0.02191684	          0.03624003	          0.05503827	          0.01680097	          0.01103248	          0.01000128	          0.01000012	          0.36925936	          0.01000027	          0.01000008	          0.01000041	          0.03097490	          0.01000025	          0.03015836	          0.04509673	          0.01970590	          0.01000085	          0.01000081	          0.02030512	          0.16852878	          0.19961559	          0.01000008	
          1.56798417	         -3.02407867	         -0.88375336	          7.17509839	          1.42610425	          0.99657857	         -0.00063272	         20.81823646	         -0.29130345	        -10.91881999	         -1.98539715	         -0.54574374	          0.17357513	        -11.09912244	         -3.94868133	        -12.22344720	        -17.19266279	          3.96910899	         35.85895247	        -11.82654917	         -1.12797064	         -7.59335249	          0.01000997	          0.12283199	          0.02734811	          0.12215271	          0.11322559	          0.05847898	          0.01748212	          0.04704404	          0.04390002	          0.01340096	          0.02619481	          0.01000064	          0.01000033	          0.39331711	          0.02371378	          0.01000009	          0.01000035	          0.02470642	          0.01000047	          0.04074684	          0.03597059	          0.01571799	          0.01000681	          0.01000148	          0.02284173	          0.13442312	          0.16449520	          0.01000011	
          1.58320732	         -3.08257725	         -1.06271191	          6.92666973	          1.44458035	          0.99653982	          0.00101709	         20.07387132	          0.09013719	        -11.28184583	         -2.33354863	         -0.97208988	          0.14452814	        -10.86396991	         -4.56435302	        -12.91714994	        -19.32178043	          2.53339378	         36.94076403	        -11.28057077	         -0.48093092	         -7.63696519	          0.01000067	          0.09797411	          0.02181363	          0.14669557	          0.09033667	          0.05758804	          0.01394500	          0.08068758	          0.03501585	          0.01068905	          0.02534441	          0.01000132	          0.01000063	          0.38912654	          0.05402155	          0.01052570	          0.01000037	          0.01970651	          0.04356628	          0.06082272	          0.02869133	          0.01253717	          0.01000050	          0.01000042	          0.01970518	          0.10721950	          0.13120581	          0.01000005	
          1.59843046	         -3.12716773	         -1.24784534	          6.66072850	          1.46252876	          0.99751621	          0.00270892	         19.38015909	          0.47722873	        -11.52451138	         -2.80073871	         -1.07538596	          0.12338243	        -10.23648847	         -5.27752229	        -13.62719051	        -22.06712522	          0.88975263	         37.50908617	        -10.80716583	          0.18278567	         -7.65239514	          0.01000311	          0.07814679	          0.01739920	          0.15366545	          0.07320071	          0.06279893	          0.01112415	          0.08110093	          0.02792960	          0.01000029	          0.04351202	          0.01000259	          0.01000673	          0.36587303	          0.05996674	          0.02499627	          0.01000026	          0.01571844	          0.05600712	          0.07009632	          0.02288577	          0.01000010	          0.01000209	          0.01000028	          0.01571742	          0.08552116	          0.10465329	          0.01000013	
          1.61365361	         -3.15726183	         -1.38649177	          6.38122170	          1.47988531	          0.99938627	          0.00440822	         18.69046500	          0.81870814	        -11.66362007	         -3.29001553	         -0.96393577	          0.11491642	         -9.20916237	         -6.05441520	        -14.42216168	        -25.45919549	         -0.79807064	         37.11456226	        -10.41590672	          0.79965135	         -7.63883912	          0.01000492	          0.06233200	          0.01387824	          0.14530212	          0.11496530	          0.07070685	          0.01000361	          0.08284603	          0.02227742	          0.01000028	          0.04503200	          0.01000211	          0.01000643	          0.33540451	          0.04783135	          0.02171795	          0.01000031	          0.01253746	          0.09633648	          0.07908434	          0.01826182	          0.01000007	          0.01000181	          0.01000021	          0.01253668	          0.06821398	          0.08347428	          0.01000111	
          1.62887676	         -3.17081095	         -1.42607719	          6.08299789	          1.49670769	          1.00190918	          0.00607482	         17.95412395	          1.06305972	        -11.75049585	         -3.71359510	         -0.71684398	          0.12260769	         -7.81568335	         -6.86194314	        -15.30458469	        -29.46759271	         -2.43795431	         35.49896514	        -10.10231061	          1.31088324	         -7.59159742	          0.01000101	          0.04971770	          0.01108870	          0.13008829	          0.09594050	          0.07249708	          0.01000386	          0.10863974	          0.01776909	          0.01000019	          0.05329724	          0.01000087	          0.01000041	          0.30498240	          0.03815176	          0.02727146	          0.01000082	          0.01000024	          0.13999196	          0.07822376	          0.02840421	          0.01000011	          0.01000089	          0.01000017	          0.01000007	          0.05440932	          0.06658134	          0.04590513	
